<svg width="64" height="64" viewBox="0 0 64 64" fill="none" xmlns="http://www.w3.org/2000/svg">
  <rect width="64" height="64" rx="18" fill="#F4F8FD"/>
  <rect x="6" y="6" width="52" height="52" rx="16" fill="url(#paint0_linear_1_1)" stroke="#D8E6F8"/>
  <path d="M22 25.5C22 21.3579 25.3579 18 29.5 18H34.5C38.6421 18 42 21.3579 42 25.5C42 29.6421 38.6421 33 34.5 33H30.25C28.4551 33 27 34.4551 27 36.25C27 38.0449 28.4551 39.5 30.25 39.5H42V46H30.25C24.8652 46 20.5 41.6348 20.5 36.25C20.5 30.8652 24.8652 26.5 30.25 26.5H34.5C35.0523 26.5 35.5 26.0523 35.5 25.5C35.5 24.9477 35.0523 24.5 34.5 24.5H22V25.5Z" fill="url(#paint1_linear_1_1)"/>
  <circle cx="42" cy="40" r="5" fill="#1B64DA"/>
  <defs>
    <linearGradient id="paint0_linear_1_1" x1="32" y1="6" x2="32" y2="58" gradientUnits="userSpaceOnUse">
      <stop stop-color="#FFFFFF"/>
      <stop offset="1" stop-color="#EEF5FF"/>
    </linearGradient>
    <linearGradient id="paint1_linear_1_1" x1="31.25" y1="18" x2="31.25" y2="46" gradientUnits="userSpaceOnUse">
      <stop stop-color="#3182F6"/>
      <stop offset="1" stop-color="#1B64DA"/>
    </linearGradient>
  </defs>
</svg>
